# xmcd
#
# Track frame offsets:
#	150
#	16767
#	45560
#	61512
#	74070
#	93980
#	113692
#	131157
#	154460
#
# Disc length: 2443 seconds
#
# Revision: 5
# Processed by: cddbd v1.5.2PL0 Copyright (c) Steve Scherf et al.
# Submitted via: audiograbber 1.83.01
#
DISCID=73098909
DTITLE=Poco - Original Album Classics - CD 5 - A Good Feelin' To Know
DYEAR=1972
DGENRE=Country Rock
TTITLE0=And Settlin' Down
TTITLE1=Ride The Country
TTITLE2=I Can See Everything
TTITLE3=Go And Say Goodbye
TTITLE4=Keeper Of The Fire
TTITLE5=Early Times
TTITLE6=A Good Feelin' To Know
TTITLE7=Restrain
TTITLE8=Sweet Lovin'
EXTD=
EXTT0=
EXTT1=
EXTT2=
EXTT3=
EXTT4=
EXTT5=
EXTT6=
EXTT7=
EXTT8=
PLAYORDER=
